<!--part of the glare theme by sixsixfive released under cc_by-sa-v4-->
<svg xmlns="http://www.w3.org/2000/svg" viewBox="0 0 5 7"><path d="M 9.8626939,1.0096279 A 0.99491807,0.99774188 0 0 0 9.2720204,1.2902147 L 3.3031089,7.2760674 A 0.99491807,0.99774188 0 0 0 3.3031089,8.7101779 L 9.2720204,14.69603 A 0.99491807,0.99774188 0 0 0 10.702073,14.69603 L 11.696891,13.698388 A 0.99491807,0.99774188 0 0 0 11.696891,12.264278 L 7.4378236,7.9931227 11.696891,3.7219674 A 0.99491807,0.99774188 0 0 0 11.696891,2.2878568 L 10.702073,1.2902147 A 0.99491807,0.99774188 0 0 0 9.8626939,1.0096279 z" color="#000" fill="#f1f2f2" transform="matrix(0.5 0 0 -0.5 -1 7.5)"/></svg>
