<?xml version="1.0" encoding="UTF-8" standalone="no"?>
<svg
   xmlns:dc="http://purl.org/dc/elements/1.1/"
   xmlns:cc="http://creativecommons.org/ns#"
   xmlns:rdf="http://www.w3.org/1999/02/22-rdf-syntax-ns#"
   xmlns:svg="http://www.w3.org/2000/svg"
   xmlns="http://www.w3.org/2000/svg"
   width="16"
   height="16"
   viewBox="0 0 4.2333332 4.2333332"
   version="1.1"
   id="svg8">
  <defs
     id="defs2" />
  <metadata
     id="metadata5">
    <rdf:RDF>
      <cc:Work
         rdf:about="">
        <dc:format>image/svg+xml</dc:format>
        <dc:type
           rdf:resource="http://purl.org/dc/dcmitype/StillImage" />
        <dc:title></dc:title>
      </cc:Work>
    </rdf:RDF>
  </metadata>
  <ellipse
     ry="2.1166666"
     rx="2.1166668"
     style="opacity:1;fill:#323131;fill-opacity:1;stroke:none;stroke-width:0.52916664;stroke-linecap:round;stroke-linejoin:round;stroke-miterlimit:4;stroke-dasharray:none;stroke-opacity:1;paint-order:normal"
     id="path815"
     cx="2.1166668"
     cy="2.1166666" />
  <path
     id="ellipse819"
     transform="scale(0.26458333)"
     d="M 8 0 A 8.0000007 7.9999998 0 0 0 0 8 A 8.0000007 7.9999998 0 0 0 8 16 A 8.0000007 7.9999998 0 0 0 16 8 A 8.0000007 7.9999998 0 0 0 8 0 z M 8.0175781 1 A 6.9830512 7.0000002 0 0 1 15 8 A 6.9830512 7.0000002 0 0 1 8.0175781 15 A 6.9830512 7.0000002 0 0 1 1.0332031 8 A 6.9830512 7.0000002 0 0 1 8.0175781 1 z "
     style="opacity:0.6;fill:#000000;fill-opacity:1;stroke:none;stroke-width:2;stroke-linecap:round;stroke-linejoin:round;stroke-miterlimit:4;stroke-dasharray:none;stroke-opacity:1;paint-order:normal" />
</svg>
