/* XPM */
static char * bottom_left_active_xpm[] = {
"5 5 3 1",
" 	c None",
".	c #141313",
"+	c #323131",
".....",
".++++",
".++++",
".++++",
"....."};
