/* XPM */
static char * close_active_xpm[] = {
"22 22 3 1",
" 	c None",
".	c #141313",
"+	c #d02604",
".+++++++++++++++++++++",
".+++++++++++++++++++++",
".+++++++++++++++++++++",
".+++++++++++++++++++++",
".+++++++++++++++++++++",
".+++++++++++++++++++++",
".+++++++++++++++++++++",
".+++++++++++++++++++++",
".+++++++++++++++++++++",
".+++++++++++++++++++++",
".+++++++++++++++++++++",
".+++++++++++++++++++++",
".+++++++++++++++++++++",
".+++++++++++++++++++++",
".+++++++++++++++++++++",
".+++++++++++++++++++++",
".+++++++++++++++++++++",
".+++++++++++++++++++++",
".+++++++++++++++++++++",
".+++++++++++++++++++++",
".+++++++++++++++++++++",
".+++++++++++++++++++++"};
